<?xml version="1.0" encoding="UTF-8" standalone="no" ?>
<!DOCTYPE svg PUBLIC "-//W3C//DTD SVG 1.1//EN" "http://www.w3.org/Graphics/SVG/1.1/DTD/svg11.dtd">
<svg xmlns="http://www.w3.org/2000/svg" xmlns:xlink="http://www.w3.org/1999/xlink" version="1.1" width="1280" height="1024" viewBox="0 0 1280 1024" xml:space="preserve">
<desc>Created with Fabric.js 5.3.0</desc>
<defs>
</defs>
<g transform="matrix(1 0 0 1 640 512)" id="background-logo"  >
<rect style="stroke: none; stroke-width: 0; stroke-dasharray: none; stroke-linecap: butt; stroke-dashoffset: 0; stroke-linejoin: miter; stroke-miterlimit: 4; fill: rgb(255,255,255); fill-opacity: 0; fill-rule: nonzero; opacity: 1;"  paint-order="stroke"  x="-640" y="-512" rx="0" ry="0" width="1280" height="1024" />
</g>
<g transform="matrix(2.291685822413199 0 0 2.291685822413199 639.1161851756531 425.1372603349952)" id="logo-logo"  >
<g style=""  paint-order="stroke"   >
		<g transform="matrix(0.21372689017989982 0 0 -0.21372689017989985 -107.52236509237463 -0.6598817734304703)"  >
<path style="stroke: none; stroke-width: 1; stroke-dasharray: none; stroke-linecap: butt; stroke-dashoffset: 0; stroke-linejoin: miter; stroke-miterlimit: 4; fill: rgb(230,57,70); fill-rule: nonzero; opacity: 1;"  paint-order="stroke"  transform=" translate(-161.172, -356.29650000000004)" d="M 322.344 356.297 C 322.344 369.516 311.629 380.23400000000004 298.406 380.23400000000004 L 23.9375 380.23400000000004 C 10.7148 380.234 0 369.516 0 356.297 C 0 343.078 10.7148 332.359 23.9375 332.359 L 298.406 332.359 C 311.629 332.359 322.344 343.078 322.344 356.29699999999997" stroke-linecap="round" />
</g>
		<g transform="matrix(0.21372689017989982 0 0 -0.21372689017989985 12.780226852087537 11.102259566575214)"  >
<path style="stroke: none; stroke-width: 1; stroke-dasharray: none; stroke-linecap: butt; stroke-dashoffset: 0; stroke-linejoin: miter; stroke-miterlimit: 4; fill: rgb(230,57,70); fill-rule: nonzero; opacity: 1;"  paint-order="stroke"  transform=" translate(-724.052, -301.26401183421575)" d="M 1133.3 349.809 L 1133.3 349.809 C 1136.94 342.867 1143.76 338.125 1151.55 337.25800000000004 C 1226.6 328.922 1284.6 263.297 1280.42 185.16000000000003 C 1276.5 111.738 1216 51.5781 1142.55 48.0469 C 1059.25 44.0352 990.199 110.648 990.199 193.082 C 990.199 241.898 1014.4799999999999 285.043 1051.54 311.352 L 1116.71 187.15599999999998 C 1122.6000000000001 175.91799999999998 1136.49 171.58599999999998 1147.73 177.48 L 1149.42 178.367 C 1160.66 184.262 1165 198.156 1159.1000000000001 209.398 L 1021.34 471.695 C 979.133 552.141 895.785 602.527 804.945 602.527 L 142.574 602.527 C 129.883 602.527 119.59400000000001 592.238 119.59400000000001 579.547 L 119.59400000000001 577.6410000000001 C 119.59400000000001 564.945 129.883 554.6560000000001 142.574 554.6560000000001 L 804.9449999999999 554.6560000000001 C 877.9879999999999 554.6560000000001 945.0039999999999 514.1410000000001 978.9409999999999 449.46100000000007 L 1029.1699999999998 353.9770000000001 C 977.352 319.719 942.902 261.27 942.332 194.758 C 941.461 92.7578 1022.77 5.86719 1124.62 0.296875 C 1235.97 -5.79688 1328.51 83.043 1328.51 193.082 C 1328.51 283.566 1265.95 359.71500000000003 1181.81 380.539 C 1175.84 382.02 1167 383.539 1157.29 384.62899999999996 C 1138.19 386.77 1124.37 366.83199999999994 1133.3 349.80899999999997" stroke-linecap="round" />
</g>
		<g transform="matrix(0.21372689017989982 0 0 -0.21372689017989985 -47.68803458458183 5.3810565552558955)"  >
<path style="stroke: none; stroke-width: 1; stroke-dasharray: none; stroke-linecap: butt; stroke-dashoffset: 0; stroke-linejoin: miter; stroke-miterlimit: 4; fill: rgb(230,57,70); fill-rule: nonzero; opacity: 1;"  paint-order="stroke"  transform=" translate(-441.1289602937119, -328.03174434103016)" d="M 455.098 242.48 C 456.531 256.80899999999997 445.31600000000003 268.887 431.281 268.887 L 379.922 268.887 C 406.98 312.91 456.70300000000003 341.551 512.836 338.004 C 534.977 336.605 555.84 330.031 574.277 319.547 L 488.63700000000006 201.78900000000004 C 480.85900000000004 191.10200000000003 483.22300000000007 176.12900000000005 493.91400000000004 168.35200000000003 C 504.605 160.57400000000004 519.5780000000001 162.93800000000005 527.355 173.63300000000004 L 678.648 381.66 C 699.3480000000001 410.113 696.633 452.62100000000004 665.125 477.35900000000004 C 652.23 487.48400000000004 635.93 492.29300000000006 619.531 492.29300000000006 L 289.898 492.29300000000006 C 277.20700000000005 492.29300000000006 266.918 482.0040000000001 266.918 469.31300000000005 L 266.918 467.40600000000006 C 266.918 454.71100000000007 277.207 444.4220000000001 289.898 444.4220000000001 L 622.316 444.4220000000001 C 632.6560000000001 444.4220000000001 641.508 437.3200000000001 643.664 426.9960000000001 C 644.984 420.6840000000001 643.0509999999999 414.1050000000001 639.258 408.8910000000001 L 602.383 358.1880000000001 C 573.234 375.8670000000001 539.332 386.1950000000001 503.38300000000004 386.1760000000001 C 423.934 386.129 356 337.672 326.539 268.887 L 215.621 268.887 C 203.102 268.887 191.691 259.875 190.441 247.418 C 189.008 233.09 200.223 221.012 214.258 221.012 L 429.922 221.012 C 442.44100000000003 221.012 453.85200000000003 230.02 455.098 242.48" stroke-linecap="round" />
</g>
		<g transform="matrix(0.21372689017989982 0 0 -0.21372689017989985 -33.755059333788836 46.01080463314227)"  >
<path style="stroke: none; stroke-width: 1; stroke-dasharray: none; stroke-linecap: butt; stroke-dashoffset: 0; stroke-linejoin: miter; stroke-miterlimit: 4; fill: rgb(230,57,70); fill-rule: nonzero; opacity: 1;"  paint-order="stroke"  transform=" translate(-506.3195183889772, -137.93049857037792)" d="M 642.418 266.016 L 642.418 266.016 C 637.715 259.55100000000004 636.527 251.16000000000003 639.375 243.69100000000003 C 644.578 230.03900000000004 647.785 215.47300000000004 648.527 200.32800000000003 C 652.5980000000001 116.98400000000004 585.965 47.87110000000004 503.4920000000001 47.87110000000004 C 436.6640000000001 47.87110000000004 380.3710000000001 93.29300000000003 363.55500000000006 154.85500000000005 C 361.0660000000001 163.97300000000004 353.52000000000004 171.25800000000004 344.1910000000001 172.79700000000005 C 326.7730000000001 175.67200000000005 312.5270000000001 159.87500000000006 316.83600000000007 143.62500000000006 C 338.734 61.0469 414.113 0 503.492 0 C 613.6410000000001 0 702.547 92.7188 696.2660000000001 204.199 C 695.1600000000001 223.80100000000002 690.988 242.60500000000002 684.2850000000001 260.211 C 677.4800000000001 278.098 653.672 281.492 642.4180000000001 266.016" stroke-linecap="round" />
</g>
		<g transform="matrix(0.21372689017989982 0 0 -0.21372689017989985 37.7827934201008 4.806520825452054)"  >
<path style="stroke: none; stroke-width: 1; stroke-dasharray: none; stroke-linecap: butt; stroke-dashoffset: 0; stroke-linejoin: miter; stroke-miterlimit: 4; fill: rgb(230,57,70); fill-rule: nonzero; opacity: 1;"  paint-order="stroke"  transform=" translate(-841.0357194887739, -330.71992143152295)" d="M 805.805 492.293 L 781.3979999999999 492.293 C 768.7029999999999 492.293 758.4139999999999 482.004 758.4139999999999 469.313 L 758.4139999999999 467.406 C 758.4139999999999 454.711 768.7029999999999 444.422 781.3979999999999 444.422 L 809.055 444.422 C 844.1089999999999 444.422 875.7929999999999 422.13300000000004 887.0899999999999 387.684 C 893.9799999999999 366.66400000000004 891.266 343.66 881.449 323.84000000000003 L 835.43 230.941 C 831.68 223.375 821.684 216.77 813.242 217.031 C 802.18 217.375 796.3629999999999 224.68800000000002 794.348 227.883 C 792.285 231.148 788.02 239.87900000000002 793.0039999999999 250.363 L 835.9879999999999 340.777 C 841.438 352.24199999999996 836.563 365.953 825.098 371.402 L 823.3789999999999 372.223 C 811.9139999999999 377.672 798.2029999999999 372.797 792.7539999999999 361.332 L 750.8909999999998 273.281 C 741.0469999999998 252.57 740.2029999999999 228.145 750.7459999999999 207.777 C 763.8089999999999 182.55499999999998 789.8239999999998 167.73 818.0159999999998 169.254 C 844.3439999999998 170.676 867.3789999999999 187.59799999999998 879.0819999999999 211.22299999999998 L 925.4299999999998 304.781 C 949.8869999999998 354.145 940.9689999999998 415.313 899.3049999999998 455.85900000000004 C 874.4879999999998 480.00800000000004 840.4339999999999 492.293 805.8049999999998 492.293" stroke-linecap="round" />
</g>
		<g transform="matrix(0.21372689017989982 0 0 -0.21372689017989985 43.37528318545577 -66.77277130139345)"  >
<path style="stroke: none; stroke-width: 1; stroke-dasharray: none; stroke-linecap: butt; stroke-dashoffset: 0; stroke-linejoin: miter; stroke-miterlimit: 4; fill: rgb(230,57,70); fill-rule: nonzero; opacity: 1;"  paint-order="stroke"  transform=" translate(-867.2022433204154, -665.6300119053757)" d="M 788.273 658.543 L 833.145 658.543 C 868.293 658.543 902.605 648.133 931.711 628.906 C 941.648 622.3439999999999 954.813 623.7729999999999 962.496 632.871 L 963.703 634.3009999999999 C 972.6329999999999 644.871 970.207 660.8009999999999 958.68 668.4609999999999 C 921.66 693.0819999999999 877.938 706.4179999999999 833.145 706.4179999999999 L 788.273 706.4179999999999 C 775.578 706.4179999999999 765.289 696.1289999999999 765.289 683.4339999999999 L 765.289 681.5269999999998 C 765.289 668.8359999999998 775.578 658.5429999999998 788.273 658.5429999999998" stroke-linecap="round" />
</g>
</g>
</g>
<g transform="matrix(1.9211538461538462 0 0 1.9211538461538462 639.7285937787301 711.0385938347314)" id="text-logo"  >
<g style=""  paint-order="stroke"   >
		<g transform="matrix(1 0 0 1 0 0)" id="text-logo-path-0"  >
<filter id="SVGID_569218" y="-57.03703703703703%" height="214.07407407407408%" x="-24.33125433125433%" width="148.66250866250866%" >
	<feGaussianBlur in="SourceAlpha" stdDeviation="9.999999999999998"></feGaussianBlur>
	<feOffset dx="0" dy="0" result="oBlur" ></feOffset>
	<feFlood flood-color="rgb(0,0,0)" flood-opacity="1"/>
	<feComposite in2="oBlur" operator="in" />
	<feMerge>
		<feMergeNode></feMergeNode>
		<feMergeNode in="SourceGraphic"></feMergeNode>
	</feMerge>
</filter>
<path style="stroke: rgb(130,1,11); stroke-width: 1.9999999999999996; stroke-dasharray: none; stroke-linecap: butt; stroke-dashoffset: 0; stroke-linejoin: miter; stroke-miterlimit: 4; fill: rgb(230,57,70); fill-rule: nonzero; opacity: 1;filter: url(#SVGID_569218);"  paint-order="stroke"  transform=" translate(-233.28000000000003, 15)" d="M 19.2 -42 L 2.4 -42 L 2.4 0 L 19.26 0 C 26.58 0 30.42 -3.66 30.42 -11.7 C 30.42 -17.1 28.74 -20.52 25.5 -22.2 C 28.32 -23.76 29.76 -26.76 29.76 -31.5 C 29.76 -38.76 25.56 -42 19.2 -42 Z M 14.4 -12 L 14.4 -15.6 L 16.44 -15.6 C 17.46 -15.6 18 -15.06 18 -13.86 C 18 -12.54 17.46 -12 16.44 -12 Z M 14.4 -27.6 L 14.4 -30 L 16.92 -30 C 17.64 -30 18 -29.64 18 -28.8 C 18 -27.96 17.64 -27.6 16.92 -27.6 Z M 46.02 -42 L 46.02 -31.8 L 57.42 -31.8 L 57.42 -42 Z M 46.02 0 L 57.42 0 L 57.42 -30 L 46.02 -30 Z M 89.94 -30 L 95.76 -30 L 95.76 -42 L 87.48 -42 C 77.88 -42 72.84 -35.64 72.84 -21.12 C 72.84 -6.36 77.88 0 87.48 0 L 95.76 0 L 95.76 -12 L 89.94 -12 C 85.56 -12 84.84 -15 84.84 -21.06 C 84.84 -27 85.56 -30 89.94 -30 Z M 115.74 12 L 127.14 12 L 138.06 -30 L 126.66 -30 L 122.94 -15.72 L 120.66 -30 L 109.26 -30 L 117.06 0 L 118.86 0 Z M 165.3 0 L 171.3 0 L 171.3 -11.52 L 165.3 -11.52 C 163.32 -11.52 161.82 -13.02 161.82 -15 C 161.82 -16.98 163.32 -18.48 165.3 -18.48 L 171.3 -18.48 L 171.3 -30 L 165.3 -30 C 157.02 -30 150.3 -23.28 150.3 -15 C 150.3 -6.72 157.02 0 165.3 0 Z M 198.78 -42 L 187.38 -42 L 187.38 0 L 198.78 0 Z M 213.78 -15 C 213.78 -6.72 220.5 0 228.78 0 L 243.78 0 L 243.78 -11.52 L 228.78 -11.52 C 227.22 -11.52 225.96 -12.42 225.48 -13.8 L 243.78 -13.8 L 243.78 -15 C 243.78 -23.28 237.06 -30 228.78 -30 C 220.5 -30 213.78 -23.28 213.78 -15 Z M 225.48 -16.2 C 225.96 -17.58 227.22 -18.48 228.78 -18.48 C 230.34 -18.48 231.6 -17.58 232.08 -16.2 Z M 298.2 -14.04 C 298.2 -12.84 297.6 -12 295.26 -12 L 287.76 -12 L 287.76 0 L 299.88 0 C 308.04 0 312.12 -4.2 312.12 -10.74 C 312.12 -20.16 302.28 -23.82 302.28 -27.84 C 302.28 -29.16 302.88 -30 305.22 -30 L 311.52 -30 L 311.52 -42 L 300.18 -42 C 291.84 -42 287.76 -38.16 287.76 -31.2 C 287.76 -22.2 298.2 -17.88 298.2 -14.04 Z M 343.68 -11.04 L 340.08 -11.04 C 339.18 -11.04 338.52 -11.7 338.52 -12.6 L 338.52 -19.8 L 343.68 -19.8 L 343.68 -30 L 338.52 -30 L 338.52 -36 L 327.12 -36 L 327.12 -12.6 C 327.12 -5.64 332.76 0 339.72 0 L 343.68 0 Z M 373.92 0.6 C 382.56 0.6 389.52 -6.36 389.52 -15 C 389.52 -23.64 382.56 -30.6 373.92 -30.6 C 365.28 -30.6 358.32 -23.64 358.32 -15 C 358.32 -6.36 365.28 0.6 373.92 0.6 Z M 370.32 -15 C 370.32 -17.04 371.88 -18.6 373.92 -18.6 C 375.96 -18.6 377.52 -17.04 377.52 -15 C 377.52 -12.96 375.96 -11.4 373.92 -11.4 C 371.88 -11.4 370.32 -12.96 370.32 -15 Z M 417.06 -18.96 L 420.66 -18.96 L 420.66 -30 L 416.7 -30 C 409.74 -30 404.1 -24.36 404.1 -17.4 L 404.1 0 L 415.5 0 L 415.5 -17.4 C 415.5 -18.3 416.16 -18.96 417.06 -18.96 Z M 434.16 -15 C 434.16 -6.72 440.88 0 449.16 0 L 464.16 0 L 464.16 -11.52 L 449.16 -11.52 C 447.6 -11.52 446.34 -12.42 445.86 -13.8 L 464.16 -13.8 L 464.16 -15 C 464.16 -23.28 457.44 -30 449.16 -30 C 440.88 -30 434.16 -23.28 434.16 -15 Z M 445.86 -16.2 C 446.34 -17.58 447.6 -18.48 449.16 -18.48 C 450.72 -18.48 451.98 -17.58 452.46 -16.2 Z" stroke-linecap="round" />
</g>
</g>
</g>
</svg>